<?xml version="1.0" encoding="utf-8"?>
<svg version="1.1" xmlns:xlink="http://www.w3.org/1999/xlink" width="12px" height="12px" viewBox="68 164.5  12 12" xmlns="http://www.w3.org/2000/svg">
  <path d="M 74 164.5  C 77.36 164.5  80 167.14  80 170.5  C 80 173.86  77.36 176.5  74 176.5  C 70.64 176.5  68 173.86  68 170.5  C 68 167.14  70.64 164.5  74 164.5  Z " fill-rule="nonzero" fill="#ffffff" stroke="none" />
  <path d="M 74 165  C 77.08 165  79.5 167.42  79.5 170.5  C 79.5 173.58  77.08 176  74 176  C 70.92 176  68.5 173.58  68.5 170.5  C 68.5 167.42  70.92 165  74 165  Z " stroke-width="1" stroke="#797979" fill="none" />
  <path d="M 74 173.5  C 72.32 173.5  71 172.18  71 170.5  C 71 168.82  72.32 167.5  74 167.5  C 75.68 167.5  77 168.82  77 170.5  C 77 172.18  75.68 173.5  74 173.5  " fill-rule="nonzero" fill="#797979" stroke="none" />
</svg>