<?xml version="1.0" encoding="utf-8"?>
<svg version="1.1" xmlns:xlink="http://www.w3.org/1999/xlink" width="12px" height="12px" viewBox="68 620.5  12 12" xmlns="http://www.w3.org/2000/svg">
  <path d="M 74 620.5  C 77.36 620.5  80 623.14  80 626.5  C 80 629.86  77.36 632.5  74 632.5  C 70.64 632.5  68 629.86  68 626.5  C 68 623.14  70.64 620.5  74 620.5  Z " fill-rule="nonzero" fill="#ffffff" stroke="none" />
  <path d="M 74 621  C 77.08 621  79.5 623.42  79.5 626.5  C 79.5 629.58  77.08 632  74 632  C 70.92 632  68.5 629.58  68.5 626.5  C 68.5 623.42  70.92 621  74 621  Z " stroke-width="1" stroke="#797979" fill="none" />
  <path d="M 74 629.5  C 72.32 629.5  71 628.18  71 626.5  C 71 624.82  72.32 623.5  74 623.5  C 75.68 623.5  77 624.82  77 626.5  C 77 628.18  75.68 629.5  74 629.5  " fill-rule="nonzero" fill="#797979" stroke="none" />
</svg>