<?xml version="1.0" encoding="utf-8"?>
<svg version="1.1" xmlns:xlink="http://www.w3.org/1999/xlink" width="12px" height="12px" viewBox="68 216.5  12 12" xmlns="http://www.w3.org/2000/svg">
  <path d="M 74 216.5  C 77.36 216.5  80 219.14  80 222.5  C 80 225.86  77.36 228.5  74 228.5  C 70.64 228.5  68 225.86  68 222.5  C 68 219.14  70.64 216.5  74 216.5  Z " fill-rule="nonzero" fill="#ffffff" stroke="none" />
  <path d="M 74 217  C 77.08 217  79.5 219.42  79.5 222.5  C 79.5 225.58  77.08 228  74 228  C 70.92 228  68.5 225.58  68.5 222.5  C 68.5 219.42  70.92 217  74 217  Z " stroke-width="1" stroke="#797979" fill="none" />
  <path d="M 74 225.5  C 72.32 225.5  71 224.18  71 222.5  C 71 220.82  72.32 219.5  74 219.5  C 75.68 219.5  77 220.82  77 222.5  C 77 224.18  75.68 225.5  74 225.5  " fill-rule="nonzero" fill="#797979" stroke="none" />
</svg>