<?xml version="1.0" encoding="utf-8"?>
<svg version="1.1" xmlns:xlink="http://www.w3.org/1999/xlink" width="62px" height="60px" xmlns="http://www.w3.org/2000/svg">
  <g transform="matrix(1 0 0 1 -63 -53 )">
    <path d="M 16.5333333333333 21.4285714285714  C 16.5333333333333 24.53125  17.4052083333333 27.3883928571429  19.1489583333333 30  C 15.6614583333333 30.1116071428571  12.8090277777778 31.5401785714286  10.5916666666667 34.2857142857143  L 6.26458333333333 34.2857142857143  C 4.49930555555556 34.2857142857143  3.01388888888889 33.8337053571429  1.80833333333333 32.9296875  C 0.602777777777778 32.0256696428571  0 30.703125  0 28.9620535714286  C 0 21.0825892857143  1.33472222222222 17.1428571428571  4.00416666666667 17.1428571428571  C 4.13333333333333 17.1428571428571  4.6015625 17.3772321428571  5.40885416666667 17.8459821428571  C 6.21614583333333 18.3147321428571  7.265625 18.7890625  8.55729166666667 19.2689732142857  C 9.84895833333333 19.7488839285714  11.1298611111111 19.9888392857143  12.4 19.9888392857143  C 13.8423611111111 19.9888392857143  15.2739583333333 19.7321428571429  16.6947916666667 19.21875  C 16.5871527777778 20.0446428571429  16.5333333333333 20.78125  16.5333333333333 21.4285714285714  Z M 53.6203125 47.8627232142857  C 53.6956597222222 48.9899553571429  53.7333333333333 50.1450892857143  53.7333333333333 51.328125  C 53.7333333333333 54.0066964285714  52.9475694444444 56.1216517857143  51.3760416666667 57.6729910714286  C 49.8045138888889 59.2243303571429  47.7163194444445 60  45.1114583333333 60  L 16.8885416666667 60  C 14.2836805555556 60  12.1954861111111 59.2243303571429  10.6239583333333 57.6729910714286  C 9.05243055555556 56.1216517857143  8.26666666666667 54.0066964285714  8.26666666666667 51.328125  C 8.26666666666667 50.1450892857143  8.30434027777778 48.9899553571429  8.3796875 47.8627232142857  C 8.45503472222222 46.7354910714286  8.60572916666667 45.5189732142857  8.83177083333333 44.2131696428571  C 9.0578125 42.9073660714286  9.34305555555556 41.6964285714286  9.6875 40.5803571428571  C 10.0319444444444 39.4642857142857  10.4947916666667 38.3761160714286  11.0760416666667 37.3158482142857  C 11.6572916666667 36.2555803571429  12.3246527777778 35.3515625  13.078125 34.6037946428571  C 13.8315972222222 33.8560267857143  14.7519097222222 33.2589285714286  15.8390625 32.8125  C 16.9262152777778 32.3660714285714  18.1263888888889 32.1428571428571  19.4395833333333 32.1428571428571  C 19.6548611111111 32.1428571428571  20.1177083333333 32.3828125  20.828125 32.8627232142857  C 21.5385416666667 33.3426339285714  22.3243055555556 33.8783482142857  23.1854166666667 34.4698660714286  C 24.0465277777778 35.0613839285714  25.1982638888889 35.5970982142857  26.640625 36.0770089285714  C 28.0829861111111 36.5569196428571  29.5361111111111 36.796875  31 36.796875  C 32.4638888888889 36.796875  33.9170138888889 36.5569196428571  35.359375 36.0770089285714  C 36.8017361111111 35.5970982142857  37.9534722222222 35.0613839285714  38.8145833333333 34.4698660714286  C 39.6756944444444 33.8783482142857  40.4614583333333 33.3426339285714  41.171875 32.8627232142857  C 41.8822916666667 32.3828125  42.3451388888889 32.1428571428571  42.5604166666667 32.1428571428571  C 43.8736111111111 32.1428571428571  45.0737847222222 32.3660714285714  46.1609375 32.8125  C 47.2480902777778 33.2589285714286  48.1684027777778 33.8560267857143  48.921875 34.6037946428571  C 49.6753472222222 35.3515625  50.3427083333333 36.2555803571429  50.9239583333333 37.3158482142857  C 51.5052083333333 38.3761160714286  51.9680555555556 39.4642857142857  52.3125 40.5803571428571  C 52.6569444444444 41.6964285714286  52.9421875 42.9073660714286  53.1682291666667 44.2131696428571  C 53.3942708333333 45.5189732142857  53.5449652777778 46.7354910714286  53.6203125 47.8627232142857  Z M 18.2447916666667 2.51116071428572  C 19.859375 4.18526785714286  20.6666666666667 6.20535714285714  20.6666666666667 8.57142857142857  C 20.6666666666667 10.9375  19.859375 12.9575892857143  18.2447916666667 14.6316964285714  C 16.6302083333333 16.3058035714286  14.6819444444444 17.1428571428571  12.4 17.1428571428571  C 10.1180555555556 17.1428571428571  8.16979166666667 16.3058035714286  6.55520833333333 14.6316964285714  C 4.940625 12.9575892857143  4.13333333333333 10.9375  4.13333333333333 8.57142857142857  C 4.13333333333333 6.20535714285714  4.940625 4.18526785714286  6.55520833333333 2.51116071428572  C 8.16979166666667 0.837053571428574  10.1180555555556 0  12.4 0  C 14.6819444444444 0  16.6302083333333 0.837053571428574  18.2447916666667 2.51116071428572  Z M 39.7671875 12.3381696428571  C 42.1890625 14.8493303571429  43.4 17.8794642857143  43.4 21.4285714285714  C 43.4 24.9776785714286  42.1890625 28.0078125  39.7671875 30.5189732142857  C 37.3453125 33.0301339285714  34.4229166666667 34.2857142857143  31 34.2857142857143  C 27.5770833333333 34.2857142857143  24.6546875 33.0301339285714  22.2328125 30.5189732142857  C 19.8109375 28.0078125  18.6 24.9776785714286  18.6 21.4285714285714  C 18.6 17.8794642857143  19.8109375 14.8493303571429  22.2328125 12.3381696428571  C 24.6546875 9.82700892857143  27.5770833333333 8.57142857142857  31 8.57142857142857  C 34.4229166666667 8.57142857142857  37.3453125 9.82700892857143  39.7671875 12.3381696428571  Z M 57.9958333333333 17.1428571428571  C 60.6652777777778 17.1428571428571  62 21.0825892857143  62 28.9620535714286  C 62 30.703125  61.3972222222222 32.0256696428571  60.1916666666667 32.9296875  C 58.9861111111111 33.8337053571429  57.5006944444444 34.2857142857143  55.7354166666667 34.2857142857143  L 51.4083333333333 34.2857142857143  C 49.1909722222222 31.5401785714286  46.3385416666667 30.1116071428571  42.8510416666667 30  C 44.5947916666667 27.3883928571429  45.4666666666667 24.53125  45.4666666666667 21.4285714285714  C 45.4666666666667 20.78125  45.4128472222222 20.0446428571429  45.3052083333333 19.21875  C 46.7260416666667 19.7321428571429  48.1576388888889 19.9888392857143  49.6 19.9888392857143  C 50.8701388888889 19.9888392857143  52.1510416666667 19.7488839285714  53.4427083333333 19.2689732142857  C 54.734375 18.7890625  55.7838541666667 18.3147321428571  56.5911458333333 17.8459821428571  C 57.3984375 17.3772321428571  57.8666666666667 17.1428571428571  57.9958333333333 17.1428571428571  Z M 55.4447916666667 2.51116071428572  C 57.059375 4.18526785714286  57.8666666666667 6.20535714285714  57.8666666666667 8.57142857142857  C 57.8666666666667 10.9375  57.059375 12.9575892857143  55.4447916666667 14.6316964285714  C 53.8302083333333 16.3058035714286  51.8819444444444 17.1428571428571  49.6 17.1428571428571  C 47.3180555555556 17.1428571428571  45.3697916666667 16.3058035714286  43.7552083333333 14.6316964285714  C 42.140625 12.9575892857143  41.3333333333333 10.9375  41.3333333333333 8.57142857142857  C 41.3333333333333 6.20535714285714  42.140625 4.18526785714286  43.7552083333333 2.51116071428572  C 45.3697916666667 0.837053571428574  47.3180555555556 0  49.6 0  C 51.8819444444444 0  53.8302083333333 0.837053571428574  55.4447916666667 2.51116071428572  Z " fill-rule="nonzero" fill="#000000" stroke="none" transform="matrix(1 0 0 1 63 53 )" />
  </g>
</svg>