<?xml version="1.0" encoding="utf-8"?>
<svg version="1.1" xmlns:xlink="http://www.w3.org/1999/xlink" width="12px" height="12px" viewBox="68 645.5  12 12" xmlns="http://www.w3.org/2000/svg">
  <path d="M 74 645.5  C 77.36 645.5  80 648.14  80 651.5  C 80 654.86  77.36 657.5  74 657.5  C 70.64 657.5  68 654.86  68 651.5  C 68 648.14  70.64 645.5  74 645.5  Z " fill-rule="nonzero" fill="#ffffff" stroke="none" />
  <path d="M 74 646  C 77.08 646  79.5 648.42  79.5 651.5  C 79.5 654.58  77.08 657  74 657  C 70.92 657  68.5 654.58  68.5 651.5  C 68.5 648.42  70.92 646  74 646  Z " stroke-width="1" stroke="#797979" fill="none" />
  <path d="M 74 654.5  C 72.32 654.5  71 653.18  71 651.5  C 71 649.82  72.32 648.5  74 648.5  C 75.68 648.5  77 649.82  77 651.5  C 77 653.18  75.68 654.5  74 654.5  " fill-rule="nonzero" fill="#797979" stroke="none" />
</svg>