<?xml version="1.0" encoding="utf-8"?>
<svg version="1.1" xmlns:xlink="http://www.w3.org/1999/xlink" width="12px" height="12px" viewBox="68 697.5  12 12" xmlns="http://www.w3.org/2000/svg">
  <path d="M 74 697.5  C 77.36 697.5  80 700.14  80 703.5  C 80 706.86  77.36 709.5  74 709.5  C 70.64 709.5  68 706.86  68 703.5  C 68 700.14  70.64 697.5  74 697.5  Z " fill-rule="nonzero" fill="#ffffff" stroke="none" />
  <path d="M 74 698  C 77.08 698  79.5 700.42  79.5 703.5  C 79.5 706.58  77.08 709  74 709  C 70.92 709  68.5 706.58  68.5 703.5  C 68.5 700.42  70.92 698  74 698  Z " stroke-width="1" stroke="#797979" fill="none" />
  <path d="M 74 706.5  C 72.32 706.5  71 705.18  71 703.5  C 71 701.82  72.32 700.5  74 700.5  C 75.68 700.5  77 701.82  77 703.5  C 77 705.18  75.68 706.5  74 706.5  " fill-rule="nonzero" fill="#797979" stroke="none" />
</svg>