<?xml version="1.0" encoding="utf-8"?>
<svg version="1.1" xmlns:xlink="http://www.w3.org/1999/xlink" width="12px" height="12px" viewBox="68 391.5  12 12" xmlns="http://www.w3.org/2000/svg">
  <path d="M 74 391.5  C 77.36 391.5  80 394.14  80 397.5  C 80 400.86  77.36 403.5  74 403.5  C 70.64 403.5  68 400.86  68 397.5  C 68 394.14  70.64 391.5  74 391.5  Z " fill-rule="nonzero" fill="#ffffff" stroke="none" />
  <path d="M 74 392  C 77.08 392  79.5 394.42  79.5 397.5  C 79.5 400.58  77.08 403  74 403  C 70.92 403  68.5 400.58  68.5 397.5  C 68.5 394.42  70.92 392  74 392  Z " stroke-width="1" stroke="#797979" fill="none" />
  <path d="M 74 400.5  C 72.32 400.5  71 399.18  71 397.5  C 71 395.82  72.32 394.5  74 394.5  C 75.68 394.5  77 395.82  77 397.5  C 77 399.18  75.68 400.5  74 400.5  " fill-rule="nonzero" fill="#797979" stroke="none" />
</svg>