<?xml version="1.0" encoding="utf-8"?>
<svg version="1.1" xmlns:xlink="http://www.w3.org/1999/xlink" width="12px" height="12px" viewBox="68 468.5  12 12" xmlns="http://www.w3.org/2000/svg">
  <path d="M 74 468.5  C 77.36 468.5  80 471.14  80 474.5  C 80 477.86  77.36 480.5  74 480.5  C 70.64 480.5  68 477.86  68 474.5  C 68 471.14  70.64 468.5  74 468.5  Z " fill-rule="nonzero" fill="#ffffff" stroke="none" />
  <path d="M 74 469  C 77.08 469  79.5 471.42  79.5 474.5  C 79.5 477.58  77.08 480  74 480  C 70.92 480  68.5 477.58  68.5 474.5  C 68.5 471.42  70.92 469  74 469  Z " stroke-width="1" stroke="#797979" fill="none" />
  <path d="M 74 477.5  C 72.32 477.5  71 476.18  71 474.5  C 71 472.82  72.32 471.5  74 471.5  C 75.68 471.5  77 472.82  77 474.5  C 77 476.18  75.68 477.5  74 477.5  " fill-rule="nonzero" fill="#797979" stroke="none" />
</svg>